<?xml version="1.0" standalone="no"?>
<!DOCTYPE svg PUBLIC "-//W3C//DTD SVG 20010904//EN"
 "http://www.w3.org/TR/2001/REC-SVG-20010904/DTD/svg10.dtd">
<svg version="1.0" xmlns="http://www.w3.org/2000/svg"
 width="1164.000000pt" height="990.000000pt" viewBox="0 0 1164.000000 990.000000"
 preserveAspectRatio="xMidYMid meet">

<g transform="translate(0.000000,990.000000) scale(0.100000,-0.100000)"
fill="#000000" stroke="none">
<path d="M5646 5430 c-127 -39 -127 -229 1 -271 95 -31 192 48 180 148 -6 57
-30 91 -80 114 -46 20 -58 21 -101 9z"/>
<path d="M5054 5032 c-60 -38 -81 -128 -44 -189 56 -92 186 -95 241 -6 32 52
23 133 -19 176 -26 26 -40 31 -89 34 -45 3 -65 0 -89 -15z"/>
<path d="M6164 5030 c-89 -57 -80 -193 17 -242 96 -49 203 19 201 128 0 25 -8
56 -17 70 -40 62 -139 84 -201 44z"/>
<path d="M5620 5001 c-99 -30 -189 -131 -190 -212 0 -24 5 -27 46 -33 26 -3
122 -6 214 -6 218 0 260 6 260 35 0 42 -58 141 -100 170 -71 49 -160 67 -230
46z"/>
<path d="M5050 4615 c-62 -19 -128 -78 -156 -139 -33 -71 -32 -92 7 -100 40
-8 435 -6 470 3 26 6 26 6 14 53 -37 147 -187 228 -335 183z"/>
<path d="M6160 4615 c-84 -27 -160 -112 -175 -197 l-7 -36 44 -7 c52 -8 474
-3 482 6 11 10 -23 105 -52 145 -60 82 -191 122 -292 89z"/>
</g>
</svg>
